<?xml version="1.0" encoding="UTF-8"?>
<svg id="Capa_2" xmlns="http://www.w3.org/2000/svg" viewBox="0 0 379.74 239.66">
  <defs>
    <style>
      .cls-1 {
        fill: #1b2b31;
      }
    </style>
  </defs>
  <g id="Capa_1-2" data-name="Capa_1">
    <g>
      <g>
        <g>
          <path class="cls-1" d="M5.15,1.82h47.74c22.35,0,35.88,12.01,35.88,31.93,0,7.75-2.89,14.75-9.12,20.37,10.19,6.54,13.68,15.96,13.68,26.3,0,21.74-15.2,34.66-40.44,34.66H5.15V1.82ZM53.95,45.76c8.51,0,13.99-5.47,13.99-13.38s-5.47-12.92-13.99-12.92h-28.13v26.3h28.13ZM55.02,96.85c10.64,0,17.64-6.54,17.64-16.42s-6.99-16.57-17.64-16.57h-29.19v32.99h29.19Z"/>
          <path class="cls-1" d="M114.16,50.17h-13.08v-17.79h32.99v82.7h-19.92V50.17ZM114.16,1.82h19.92v21.28h-19.92V1.82Z"/>
          <path class="cls-1" d="M152.2,0h19.92v97.61h10.79v17.48h-30.71V0Z"/>
          <path class="cls-1" d="M213.95,105.82v9.27h-18.7V0h19.92v40.74c5.93-6.54,14.75-10.18,25.39-10.18,23.56,0,41.66,18.85,41.66,43.18s-17.79,43.18-41.81,43.18c-10.79,0-20.37-3.95-26.45-11.1ZM261.54,73.74c0-14.29-9.88-24.93-23.41-24.93s-22.96,10.49-22.96,24.93,9.73,24.93,22.96,24.93,23.41-10.49,23.41-24.93Z"/>
        </g>
        <path class="cls-1" d="M356.61,52.06v43.88h-44.68v-43.88h44.68M375.79,32.88h-83.03v82.23h83.03V32.88h0Z"/>
      </g>
      <g>
        <path class="cls-1" d="M0,210.69l15.82-6.86c5.04,12.04,15.12,19.18,27.01,19.18,9.94,0,16.52-5.04,16.52-12.74,0-6.16-3.64-9.94-10.92-12.32l-20.02-6.44c-16.24-5.18-24.5-15.4-24.5-29.11,0-17.92,14.28-30.37,34.85-30.37,18.76,0,33.59,10.36,39.19,26.03l-15.68,7c-4.06-10.36-12.74-16.38-23.52-16.38-9.66,0-16.1,5.18-16.1,12.88,0,5.74,3.78,10.36,11.34,12.74l19.18,6.02c16.66,5.32,24.92,14.84,24.92,28.84,0,17.92-14.84,30.51-36.25,30.51-19.88,0-36.25-11.62-41.85-28.97"/>
        <path class="cls-1" d="M98.44,178.22h-13.16v-16.38h13.16v-17.36h18.34v17.36h17.5v16.38h-17.5v43.53h17.78v16.24h-36.11v-59.77Z"/>
        <path class="cls-1" d="M143.4,217.83c0-12.6,8.4-21.42,26.31-24.35l22.68-3.64v-11.62h-41.01v-16.38h59.35v76.14h-17.36v-8.12c-5.88,6.44-13.72,9.8-23.8,9.8-15.96,0-26.17-8.4-26.17-21.84ZM172.93,225.67c11.62,0,19.46-8.26,19.46-18.76v-3.08l-19.18,3.22c-7.28,1.4-10.78,4.62-10.78,10.08s4.34,8.54,10.5,8.54Z"/>
        <path class="cls-1" d="M222.98,199.77c0-22.53,16.94-39.61,39.75-39.61,16.24,0,29.81,9.1,34.57,22.53l-16.1,7c-2.94-7.7-9.8-12.74-18.48-12.74-12.04,0-20.72,9.66-20.72,22.96s8.68,22.96,20.72,22.96c8.82,0,15.54-4.9,18.48-12.88l16.1,7.28c-4.48,13.02-18.06,22.39-34.57,22.39-22.82,0-39.75-17.22-39.75-39.89Z"/>
        <path class="cls-1" d="M309.06,132.03h18.34v58.09h10.36l18.2-28.27h20.55l-23.63,37.23,26.87,38.91h-21l-21.98-31.49h-9.38v31.49h-18.34v-105.96Z"/>
      </g>
    </g>
  </g>
</svg>